<?xml version="1.0" encoding="utf-8"?>
<!-- Generator: Adobe Illustrator 24.2.1, SVG Export Plug-In . SVG Version: 6.00 Build 0)  -->
<svg version="1.1" id="Layer_1" xmlns="http://www.w3.org/2000/svg" xmlns:xlink="http://www.w3.org/1999/xlink" x="0px" y="0px"
	 viewBox="0 0 351.5 109.2" style="enable-background:new 0 0 351.5 109.2;" xml:space="preserve">
<style type="text/css">
	.st0{clip-path:url(#SVGID_2_);}
	.st1{fill:url(#SVGID_3_);}
	.st2{fill:#2C3A4F;}
</style>
<g id="Layer_2_4_">
	<g>
		<defs>
			<path id="SVGID_1_" d="M56.5,31.4l22.3,18.1c-1.1,1.3-1.8,3-1.8,4.8c0,0.2,0,0.3,0,0.5l-19.2,5.7c-0.9-2.8-4-4.4-6.8-3.5
				c-0.8,0.3-1.5,0.7-2.1,1.3l-9.1-6.7c1.2-2.7,1-5.9-0.6-8.4l10.1-10.6C51.7,33.8,54.6,33.3,56.5,31.4 M57.9,28.5
				c0.1-0.4,0.1-0.8,0.1-1.2c0-1.9-0.9-3.6-2.4-4.7L63.5,8c0.6,0,1.2-0.2,1.7-0.5L80.1,19c-0.1,0.4-0.2,0.9-0.2,1.3
				c0,1.7,1,3.3,2.5,4l0.1,23c-0.4,0.1-0.8,0.2-1.1,0.4L57.9,28.5z M60.1,4.7c0,0.6,0.2,1.3,0.6,1.8l-7.9,14.9c-0.2,0-0.4,0-0.6,0
				c-1.2,0-2.3,0.4-3.3,1l-18.8-9v-0.1c0-3-2.4-5.4-5.4-5.5c-3,0-5.4,2.4-5.5,5.4c0,3,2.4,5.4,5.4,5.5c1.8,0,3.4-0.8,4.5-2.3
				l17.8,8.4c-0.4,0.8-0.5,1.6-0.5,2.5c0,1.1,0.3,2.1,0.9,3.1l-9.9,10.5c-3.9-2.9-9.4-2.2-12.3,1.7c-0.3,0.4-0.6,0.9-0.8,1.3L9.7,37
				c0-0.1,0-0.2,0-0.4c0-2.4-2-4.4-4.4-4.4c-2.4,0-4.4,2-4.4,4.4c0,2.4,2,4.4,4.4,4.4c1.2,0,2.3-0.5,3.1-1.3l14.8,7
				c0,0.3-0.1,0.7-0.1,1c0,2.4,1,4.7,2.7,6.3l-7.7,11.4c-0.1,0-0.2,0-0.3,0c-1.8,0-3.4,1.5-3.4,3.3c0,1.8,1.5,3.4,3.3,3.4
				c1.8,0,3.4-1.5,3.4-3.3c0-0.6-0.1-1.1-0.4-1.6L28.4,56c3.3,1.4,7.2,0.7,9.7-1.9l9.2,6.8c-0.1,0.4-0.1,0.8-0.1,1.2
				c0,3,2.4,5.4,5.4,5.4c2.4,0,4.5-1.6,5.2-3.8l20.1-5.9c1.9,3.5,6.4,4.8,9.9,2.9c0.2-0.1,0.4-0.2,0.6-0.4l8.5,8
				c-0.1,0.3-0.1,0.5-0.1,0.8c0,2.2,1.7,3.9,3.9,4c2.2,0,3.9-1.7,4-3.9s-1.7-3.9-3.9-4c-0.7,0-1.4,0.2-2,0.5L90.6,58
				c2-3.5,0.9-7.9-2.6-9.9c-0.7-0.4-1.5-0.7-2.4-0.9l-0.1-22.6c0.7-0.2,1.4-0.6,1.9-1.2l16.3,10.2l14,19.7c-0.1,0.3-0.2,0.7-0.2,1
				c0,1.6,1.3,2.8,2.8,2.8c1.6,0,2.8-1.3,2.8-2.8c0-1.6-1.3-2.8-2.8-2.8h-0.1l-13.4-18.9l12.4-9.9c2.1,1.3,4.8,0.6,6.1-1.5
				c1.3-2.1,0.6-4.8-1.5-6.1s-4.8-0.6-6.1,1.5c-0.4,0.7-0.6,1.5-0.6,2.3c0,0.5,0.1,0.9,0.2,1.4L105,29.9l-0.5,0.4l-0.3-0.2
				l-15.5-9.7c0-0.1,0-0.1,0-0.2c0-2.4-2-4.4-4.4-4.4c0,0,0,0,0,0c-0.8,0-1.6,0.2-2.3,0.7L66.7,4.8c0,0,0-0.1,0-0.1
				c0-1.8-1.5-3.3-3.3-3.3C61.6,1.4,60.2,2.9,60.1,4.7"/>
		</defs>
		<clipPath id="SVGID_2_">
			<use xlink:href="#SVGID_1_"  style="overflow:visible;"/>
		</clipPath>
		<g class="st0">
			
				<linearGradient id="SVGID_3_" gradientUnits="userSpaceOnUse" x1="839.5424" y1="5466.2812" x2="840.3176" y2="5466.2812" gradientTransform="matrix(160.85 0 0 -160.85 -135040.7656 879288.5)">
				<stop  offset="0" style="stop-color:#FBB649"/>
				<stop  offset="0" style="stop-color:#FBB649"/>
				<stop  offset="1" style="stop-color:#EE6750"/>
			</linearGradient>
			<rect x="0.8" y="1.4" class="st1" width="125" height="71.5"/>
		</g>
	</g>
	<path class="st2" d="M137,40.4c0-15.7,10.3-24.7,25.5-24.7s25.5,9.1,25.5,24.7s-10.3,25.2-25.5,25.2S137,56.2,137,40.4 M174.9,40.4
		c0-9.6-4.8-15.3-12.5-15.3S150,30.8,150,40.4s4.8,15.7,12.5,15.7S174.9,50.1,174.9,40.4"/>
	<path class="st2" d="M196.9,58.6l7.3-7.5c4,3,9.2,5,13.8,5c5.3,0,7.9-1.8,7.9-4.6c0-3-3.2-4-8.1-5.7l-7.3-2.7
		c-5.8-2-11.3-6.1-11.3-13.1c0-8,8.3-14.3,20-14.3c6.6-0.1,12.9,2.2,18,6.3l-6.4,6.8c-3.4-2.4-7.5-3.7-11.6-3.8
		c-4.4,0-7.1,1.6-7.1,4.3c0,3,3.7,4,8.6,5.7l7.1,2.5c6.8,2.4,11.1,6.3,11.1,13.1c0,8-7.8,14.9-21.1,14.9
		C210.1,65.6,202.8,63.2,196.9,58.6"/>
	<path class="st2" d="M247.6,17.5h13.8l9.1,21.4c1.1,2.8,2.1,5.9,3.2,8.9h0.4c1.1-3,2.1-6,3.2-8.9l8.8-21.4h13.8v48.1h-11.5V47.9
		c0-4.7,1-11.7,1.6-16.3h-0.4l-4.6,11.4l-7.9,18.4h-7l-7.9-18.4l-4.5-11.4h-0.3c0.6,4.7,1.6,11.6,1.6,16.3v17.6h-11.4V17.5z"/>
	<path class="st2" d="M308.8,58.6l7.3-7.5c4,3,9.2,5,13.8,5c5.3,0,7.9-1.8,7.9-4.6c0-3-3.2-4-8.1-5.7l-7.3-2.7
		c-5.8-2-11.3-6.1-11.3-13.1c0-8,8.3-14.3,20-14.3c6.6-0.1,12.9,2.2,18,6.3l-6.4,6.8c-3.4-2.4-7.5-3.7-11.6-3.8
		c-4.4,0-7.1,1.6-7.1,4.3c0,3,3.7,4,8.6,5.7l7.1,2.5c6.8,2.4,11.1,6.3,11.1,13.1c0,8-7.8,14.9-21.1,14.9
		C322,65.6,314.7,63.2,308.8,58.6"/>
	<g>
		<path class="st2" d="M6.3,102.7c-1.3-0.7-2.3-1.6-3-2.8c-0.7-1.2-1.1-2.6-1.1-4.1c0-1.5,0.4-2.9,1.1-4.1c0.7-1.2,1.7-2.2,3-2.8
			c1.3-0.7,2.7-1,4.3-1c1.6,0,3,0.3,4.3,1c1.3,0.7,2.3,1.6,3,2.8c0.7,1.2,1.1,2.6,1.1,4.1c0,1.5-0.4,2.9-1.1,4.1
			c-0.7,1.2-1.7,2.2-3,2.8c-1.3,0.7-2.7,1-4.3,1C9,103.8,7.6,103.4,6.3,102.7z M13.1,100.1c0.7-0.4,1.3-1,1.7-1.7
			c0.4-0.7,0.6-1.6,0.6-2.6c0-1-0.2-1.8-0.6-2.6c-0.4-0.7-1-1.3-1.7-1.7c-0.7-0.4-1.6-0.6-2.5-0.6c-0.9,0-1.7,0.2-2.5,0.6
			c-0.7,0.4-1.3,1-1.7,1.7s-0.6,1.6-0.6,2.6c0,1,0.2,1.8,0.6,2.6s1,1.3,1.7,1.7c0.7,0.4,1.6,0.6,2.5,0.6
			C11.6,100.7,12.4,100.5,13.1,100.1z"/>
		<path class="st2" d="M31.5,92.2c0.9,0.5,1.6,1.2,2.1,2.1c0.5,0.9,0.8,2,0.8,3.2c0,1.2-0.3,2.3-0.8,3.2c-0.5,0.9-1.2,1.6-2.1,2.1
			c-0.9,0.5-1.9,0.8-3,0.8c-1.5,0-2.7-0.5-3.6-1.4v5.5h-3.4V91.7h3.3V93c0.9-1,2.1-1.5,3.7-1.5C29.6,91.5,30.6,91.7,31.5,92.2z
			 M30.1,100c0.6-0.6,0.8-1.4,0.8-2.4c0-1-0.3-1.8-0.8-2.4c-0.6-0.6-1.3-0.9-2.2-0.9c-0.9,0-1.6,0.3-2.2,0.9
			c-0.6,0.6-0.8,1.4-0.8,2.4c0,1,0.3,1.8,0.8,2.4c0.6,0.6,1.3,0.9,2.2,0.9C28.8,100.9,29.5,100.6,30.1,100z"/>
		<path class="st2" d="M48.2,98.5h-9c0.2,0.7,0.5,1.3,1.1,1.7c0.6,0.4,1.3,0.6,2.2,0.6c0.6,0,1.2-0.1,1.6-0.3
			c0.5-0.2,0.9-0.5,1.3-0.9l1.8,2c-1.1,1.3-2.7,1.9-4.9,1.9c-1.3,0-2.5-0.3-3.5-0.8c-1-0.5-1.8-1.2-2.4-2.2c-0.6-0.9-0.8-2-0.8-3.1
			c0-1.2,0.3-2.2,0.8-3.1c0.6-0.9,1.3-1.7,2.3-2.2c1-0.5,2-0.8,3.2-0.8c1.2,0,2.2,0.2,3.1,0.7c0.9,0.5,1.7,1.2,2.2,2.1
			c0.5,0.9,0.8,2,0.8,3.2C48.3,97.7,48.3,98,48.2,98.5z M40.2,94.7c-0.5,0.4-0.9,1-1,1.8h5.8c-0.1-0.7-0.4-1.3-1-1.8
			c-0.5-0.4-1.2-0.7-1.9-0.7C41.4,94.1,40.7,94.3,40.2,94.7z"/>
		<path class="st2" d="M61.3,92.8c0.9,0.9,1.4,2.2,1.4,3.9v6.8h-3.4v-6.2c0-0.9-0.2-1.6-0.6-2.1c-0.4-0.5-1-0.7-1.8-0.7
			c-0.9,0-1.6,0.3-2.1,0.8c-0.5,0.5-0.8,1.3-0.8,2.4v5.9h-3.4V91.7h3.3V93c0.5-0.5,1-0.9,1.7-1.2c0.7-0.3,1.4-0.4,2.2-0.4
			C59.2,91.5,60.4,91.9,61.3,92.8z"/>
		<path class="st2" d="M73.8,103.3c-1.1-0.3-2-0.8-2.7-1.3l1.2-2.7c0.7,0.5,1.4,0.9,2.4,1.2c0.9,0.3,1.8,0.4,2.7,0.4
			c1,0,1.8-0.2,2.2-0.5c0.5-0.3,0.7-0.7,0.7-1.2c0-0.4-0.1-0.7-0.4-0.9c-0.3-0.2-0.7-0.4-1.1-0.6c-0.4-0.1-1.1-0.3-1.8-0.5
			c-1.2-0.3-2.1-0.6-2.9-0.8c-0.7-0.3-1.4-0.7-1.9-1.3c-0.5-0.6-0.8-1.4-0.8-2.5c0-0.9,0.2-1.7,0.7-2.4c0.5-0.7,1.2-1.3,2.2-1.7
			c1-0.4,2.2-0.6,3.6-0.6c1,0,1.9,0.1,2.9,0.4c0.9,0.2,1.8,0.6,2.5,1l-1.1,2.7c-1.4-0.8-2.8-1.2-4.3-1.2c-1,0-1.7,0.2-2.2,0.5
			c-0.5,0.3-0.7,0.7-0.7,1.3c0,0.5,0.3,0.9,0.8,1.2c0.6,0.3,1.4,0.5,2.5,0.8c1.2,0.3,2.1,0.6,2.9,0.8c0.7,0.3,1.4,0.7,1.9,1.3
			c0.5,0.6,0.8,1.4,0.8,2.4c0,0.9-0.2,1.7-0.7,2.4c-0.5,0.7-1.2,1.3-2.2,1.7c-1,0.4-2.2,0.6-3.6,0.6
			C76.1,103.8,74.9,103.6,73.8,103.3z"/>
		<path class="st2" d="M88.3,102.9c-1-0.5-1.8-1.2-2.3-2.2s-0.8-2-0.8-3.1c0-1.2,0.3-2.2,0.8-3.1c0.6-0.9,1.3-1.6,2.3-2.2
			c1-0.5,2.1-0.8,3.4-0.8c1.2,0,2.4,0.3,3.3,0.8c1,0.5,1.8,1.2,2.3,2.2c0.6,0.9,0.8,2,0.8,3.1c0,1.2-0.3,2.2-0.8,3.1
			c-0.6,0.9-1.3,1.6-2.3,2.2c-1,0.5-2.1,0.8-3.3,0.8C90.4,103.7,89.3,103.4,88.3,102.9z M93.8,100c0.6-0.6,0.8-1.4,0.8-2.4
			c0-1-0.3-1.8-0.8-2.4s-1.3-0.9-2.2-0.9s-1.6,0.3-2.2,0.9s-0.9,1.4-0.9,2.4c0,1,0.3,1.8,0.9,2.4c0.6,0.6,1.3,0.9,2.2,0.9
			S93.3,100.6,93.8,100z"/>
		<path class="st2" d="M112.4,91.7v11.8h-3.3v-1.4c-0.5,0.5-1,0.9-1.6,1.2c-0.6,0.3-1.3,0.4-2,0.4c-1.6,0-2.8-0.4-3.7-1.3
			c-0.9-0.9-1.4-2.2-1.4-4v-6.7h3.4v6.2c0,1.9,0.8,2.9,2.4,2.9c0.8,0,1.5-0.3,2-0.8s0.7-1.3,0.7-2.4v-5.9H112.4z"/>
		<path class="st2" d="M120.5,91.9c0.7-0.3,1.5-0.4,2.4-0.4v3.2c-0.4,0-0.6,0-0.8,0c-1,0-1.8,0.3-2.3,0.8s-0.8,1.4-0.8,2.5v5.6h-3.4
			V91.7h3.3v1.6C119.3,92.6,119.8,92.2,120.5,91.9z"/>
		<path class="st2" d="M127.2,102.9c-1-0.5-1.8-1.2-2.4-2.2c-0.6-0.9-0.8-2-0.8-3.1c0-1.2,0.3-2.2,0.8-3.1c0.6-0.9,1.3-1.6,2.4-2.2
			c1-0.5,2.1-0.8,3.4-0.8c1.2,0,2.3,0.3,3.3,0.8c0.9,0.5,1.6,1.3,2,2.2l-2.7,1.4c-0.6-1.1-1.5-1.6-2.7-1.6c-0.9,0-1.6,0.3-2.2,0.9
			c-0.6,0.6-0.9,1.4-0.9,2.4c0,1,0.3,1.8,0.9,2.4c0.6,0.6,1.3,0.9,2.2,0.9c1.2,0,2.1-0.5,2.7-1.6l2.7,1.5c-0.4,0.9-1.1,1.7-2,2.2
			c-0.9,0.5-2,0.8-3.3,0.8C129.3,103.7,128.2,103.4,127.2,102.9z"/>
		<path class="st2" d="M149.2,98.5h-9c0.2,0.7,0.5,1.3,1.1,1.7c0.6,0.4,1.3,0.6,2.2,0.6c0.6,0,1.2-0.1,1.6-0.3
			c0.5-0.2,0.9-0.5,1.3-0.9l1.8,2c-1.1,1.3-2.7,1.9-4.9,1.9c-1.3,0-2.5-0.3-3.5-0.8c-1-0.5-1.8-1.2-2.4-2.2s-0.8-2-0.8-3.1
			c0-1.2,0.3-2.2,0.8-3.1s1.3-1.7,2.3-2.2c1-0.5,2-0.8,3.2-0.8c1.2,0,2.2,0.2,3.1,0.7c0.9,0.5,1.7,1.2,2.2,2.1
			c0.5,0.9,0.8,2,0.8,3.2C149.3,97.7,149.3,98,149.2,98.5z M141.2,94.7c-0.5,0.4-0.9,1-1,1.8h5.8c-0.1-0.7-0.4-1.3-1-1.8
			c-0.5-0.4-1.2-0.7-1.9-0.7C142.4,94.1,141.7,94.3,141.2,94.7z"/>
		<path class="st2" d="M172.1,103.5l0-9.2l-4.5,7.6h-1.6l-4.5-7.4v9h-3.3V88.1h2.9l5.8,9.6l5.7-9.6h2.9l0,15.4H172.1z"/>
		<path class="st2" d="M190.4,98.5h-9c0.2,0.7,0.5,1.3,1.1,1.7c0.6,0.4,1.3,0.6,2.2,0.6c0.6,0,1.2-0.1,1.6-0.3
			c0.5-0.2,0.9-0.5,1.3-0.9l1.8,2c-1.1,1.3-2.7,1.9-4.9,1.9c-1.3,0-2.5-0.3-3.5-0.8c-1-0.5-1.8-1.2-2.4-2.2s-0.8-2-0.8-3.1
			c0-1.2,0.3-2.2,0.8-3.1s1.3-1.7,2.3-2.2c1-0.5,2-0.8,3.2-0.8c1.2,0,2.2,0.2,3.1,0.7c0.9,0.5,1.7,1.2,2.2,2.1
			c0.5,0.9,0.8,2,0.8,3.2C190.4,97.7,190.4,98,190.4,98.5z M182.3,94.7c-0.5,0.4-0.9,1-1,1.8h5.8c-0.1-0.7-0.4-1.3-1-1.8
			c-0.5-0.4-1.2-0.7-1.9-0.7C183.5,94.1,182.9,94.3,182.3,94.7z"/>
		<path class="st2" d="M204.8,87.2v16.3h-3.3v-1.4c-0.9,1-2.1,1.5-3.7,1.5c-1.1,0-2.1-0.2-3-0.7c-0.9-0.5-1.6-1.2-2.1-2.1
			c-0.5-0.9-0.8-2-0.8-3.2c0-1.2,0.3-2.3,0.8-3.2c0.5-0.9,1.2-1.6,2.1-2.1c0.9-0.5,1.9-0.7,3-0.7c1.5,0,2.7,0.5,3.5,1.4v-5.7H204.8z
			 M200.5,100c0.6-0.6,0.9-1.4,0.9-2.4c0-1-0.3-1.8-0.9-2.4c-0.6-0.6-1.3-0.9-2.2-0.9c-0.9,0-1.6,0.3-2.2,0.9
			c-0.6,0.6-0.9,1.4-0.9,2.4c0,1,0.3,1.8,0.9,2.4c0.6,0.6,1.3,0.9,2.2,0.9C199.3,100.9,200,100.6,200.5,100z"/>
		<path class="st2" d="M208.1,89.5c-0.4-0.4-0.6-0.8-0.6-1.4c0-0.5,0.2-1,0.6-1.4c0.4-0.4,0.9-0.6,1.5-0.6c0.6,0,1.1,0.2,1.5,0.5
			c0.4,0.4,0.6,0.8,0.6,1.3c0,0.6-0.2,1-0.6,1.4c-0.4,0.4-0.9,0.6-1.5,0.6C209,90,208.5,89.8,208.1,89.5z M207.9,91.7h3.4v11.8h-3.4
			V91.7z"/>
		<path class="st2" d="M216.9,102.9c-1-0.5-1.8-1.2-2.4-2.2c-0.6-0.9-0.8-2-0.8-3.1c0-1.2,0.3-2.2,0.8-3.1c0.6-0.9,1.3-1.6,2.4-2.2
			c1-0.5,2.1-0.8,3.4-0.8c1.2,0,2.3,0.3,3.3,0.8c0.9,0.5,1.6,1.3,2,2.2l-2.7,1.4c-0.6-1.1-1.5-1.6-2.7-1.6c-0.9,0-1.6,0.3-2.2,0.9
			c-0.6,0.6-0.9,1.4-0.9,2.4c0,1,0.3,1.8,0.9,2.4c0.6,0.6,1.3,0.9,2.2,0.9c1.2,0,2.1-0.5,2.7-1.6l2.7,1.5c-0.4,0.9-1.1,1.7-2,2.2
			c-0.9,0.5-2,0.8-3.3,0.8C219,103.7,217.9,103.4,216.9,102.9z"/>
		<path class="st2" d="M236.6,92.8c1,0.9,1.5,2.2,1.5,3.9v6.8h-3.2V102c-0.6,1.1-1.8,1.7-3.6,1.7c-0.9,0-1.7-0.2-2.4-0.5
			c-0.7-0.3-1.2-0.7-1.5-1.3c-0.4-0.5-0.5-1.2-0.5-1.8c0-1.1,0.4-2,1.2-2.6c0.8-0.6,2.1-0.9,3.8-0.9h2.7c0-0.7-0.2-1.3-0.7-1.7
			c-0.5-0.4-1.1-0.6-2-0.6c-0.6,0-1.3,0.1-1.9,0.3c-0.6,0.2-1.1,0.5-1.6,0.8l-1.2-2.4c0.6-0.5,1.4-0.8,2.3-1.1
			c0.9-0.2,1.8-0.4,2.8-0.4C234.2,91.5,235.6,91.9,236.6,92.8z M233.6,101c0.5-0.3,0.8-0.7,1-1.2v-1.2h-2.4c-1.4,0-2.1,0.5-2.1,1.4
			c0,0.4,0.2,0.8,0.5,1c0.3,0.3,0.8,0.4,1.4,0.4C232.7,101.4,233.2,101.2,233.6,101z"/>
		<path class="st2" d="M241.1,87.2h3.4v16.3h-3.4V87.2z"/>
		<path class="st2" d="M255.8,103.3c-1.1-0.3-2-0.8-2.7-1.3l1.2-2.7c0.7,0.5,1.4,0.9,2.4,1.2c0.9,0.3,1.8,0.4,2.7,0.4
			c1,0,1.8-0.2,2.2-0.5c0.5-0.3,0.7-0.7,0.7-1.2c0-0.4-0.1-0.7-0.4-0.9c-0.3-0.2-0.7-0.4-1.1-0.6c-0.4-0.1-1.1-0.3-1.8-0.5
			c-1.2-0.3-2.1-0.6-2.9-0.8c-0.7-0.3-1.4-0.7-1.9-1.3c-0.5-0.6-0.8-1.4-0.8-2.5c0-0.9,0.2-1.7,0.7-2.4c0.5-0.7,1.2-1.3,2.2-1.7
			c1-0.4,2.2-0.6,3.6-0.6c1,0,1.9,0.1,2.9,0.4c0.9,0.2,1.8,0.6,2.5,1l-1.1,2.7c-1.4-0.8-2.8-1.2-4.3-1.2c-1,0-1.7,0.2-2.2,0.5
			c-0.5,0.3-0.7,0.7-0.7,1.3c0,0.5,0.3,0.9,0.8,1.2c0.6,0.3,1.4,0.5,2.5,0.8c1.2,0.3,2.1,0.6,2.9,0.8c0.7,0.3,1.4,0.7,1.9,1.3
			c0.5,0.6,0.8,1.4,0.8,2.4c0,0.9-0.2,1.7-0.7,2.4c-0.5,0.7-1.2,1.3-2.2,1.7c-1,0.4-2.2,0.6-3.6,0.6
			C258.1,103.8,256.9,103.6,255.8,103.3z"/>
		<path class="st2" d="M280,91.7v11.8h-3.3v-1.4c-0.5,0.5-1,0.9-1.6,1.2c-0.6,0.3-1.3,0.4-2,0.4c-1.6,0-2.8-0.4-3.7-1.3
			c-0.9-0.9-1.4-2.2-1.4-4v-6.7h3.4v6.2c0,1.9,0.8,2.9,2.4,2.9c0.8,0,1.5-0.3,2-0.8c0.5-0.5,0.7-1.3,0.7-2.4v-5.9H280z"/>
		<path class="st2" d="M293.1,92.2c0.9,0.5,1.6,1.2,2.1,2.1c0.5,0.9,0.8,2,0.8,3.2c0,1.2-0.3,2.3-0.8,3.2c-0.5,0.9-1.2,1.6-2.1,2.1
			c-0.9,0.5-1.9,0.8-3,0.8c-1.5,0-2.7-0.5-3.6-1.4v5.5h-3.4V91.7h3.3V93c0.9-1,2.1-1.5,3.7-1.5C291.2,91.5,292.2,91.7,293.1,92.2z
			 M291.7,100c0.6-0.6,0.8-1.4,0.8-2.4c0-1-0.3-1.8-0.8-2.4c-0.6-0.6-1.3-0.9-2.2-0.9c-0.9,0-1.6,0.3-2.2,0.9s-0.8,1.4-0.8,2.4
			c0,1,0.3,1.8,0.8,2.4c0.6,0.6,1.3,0.9,2.2,0.9C290.4,100.9,291.2,100.6,291.7,100z"/>
		<path class="st2" d="M308.3,92.2c0.9,0.5,1.6,1.2,2.1,2.1c0.5,0.9,0.8,2,0.8,3.2c0,1.2-0.3,2.3-0.8,3.2c-0.5,0.9-1.2,1.6-2.1,2.1
			c-0.9,0.5-1.9,0.8-3,0.8c-1.5,0-2.7-0.5-3.6-1.4v5.5h-3.4V91.7h3.3V93c0.9-1,2.1-1.5,3.7-1.5C306.4,91.5,307.4,91.7,308.3,92.2z
			 M306.9,100c0.6-0.6,0.8-1.4,0.8-2.4c0-1-0.3-1.8-0.8-2.4s-1.3-0.9-2.2-0.9c-0.9,0-1.6,0.3-2.2,0.9c-0.6,0.6-0.8,1.4-0.8,2.4
			c0,1,0.3,1.8,0.8,2.4c0.6,0.6,1.3,0.9,2.2,0.9C305.6,100.9,306.3,100.6,306.9,100z"/>
		<path class="st2" d="M313.5,87.2h3.4v16.3h-3.4V87.2z"/>
		<path class="st2" d="M320.3,89.5c-0.4-0.4-0.6-0.8-0.6-1.4c0-0.5,0.2-1,0.6-1.4c0.4-0.4,0.9-0.6,1.5-0.6s1.1,0.2,1.5,0.5
			c0.4,0.4,0.6,0.8,0.6,1.3c0,0.6-0.2,1-0.6,1.4c-0.4,0.4-0.9,0.6-1.5,0.6S320.7,89.8,320.3,89.5z M320.1,91.7h3.4v11.8h-3.4V91.7z"
			/>
		<path class="st2" d="M338.3,98.5h-9c0.2,0.7,0.5,1.3,1.1,1.7s1.3,0.6,2.2,0.6c0.6,0,1.2-0.1,1.6-0.3c0.5-0.2,0.9-0.5,1.3-0.9
			l1.8,2c-1.1,1.3-2.7,1.9-4.9,1.9c-1.3,0-2.5-0.3-3.5-0.8c-1-0.5-1.8-1.2-2.4-2.2s-0.8-2-0.8-3.1c0-1.2,0.3-2.2,0.8-3.1
			s1.3-1.7,2.3-2.2c1-0.5,2-0.8,3.2-0.8c1.2,0,2.2,0.2,3.1,0.7c0.9,0.5,1.7,1.2,2.2,2.1c0.5,0.9,0.8,2,0.8,3.2
			C338.4,97.7,338.3,98,338.3,98.5z M330.3,94.7c-0.5,0.4-0.9,1-1,1.8h5.8c-0.1-0.7-0.4-1.3-1-1.8c-0.5-0.4-1.2-0.7-1.9-0.7
			C331.4,94.1,330.8,94.3,330.3,94.7z"/>
		<path class="st2" d="M341.7,103.3c-0.9-0.2-1.7-0.5-2.2-0.9l1.1-2.5c0.5,0.3,1.2,0.6,1.9,0.8c0.7,0.2,1.5,0.3,2.2,0.3
			c1.5,0,2.2-0.4,2.2-1.1c0-0.3-0.2-0.6-0.6-0.7c-0.4-0.1-1-0.3-1.8-0.4c-1-0.1-1.8-0.3-2.4-0.5c-0.6-0.2-1.2-0.5-1.6-1
			c-0.5-0.5-0.7-1.2-0.7-2.1c0-0.7,0.2-1.4,0.6-2c0.4-0.6,1.1-1,1.9-1.4c0.8-0.3,1.8-0.5,2.9-0.5c0.8,0,1.7,0.1,2.5,0.3
			c0.8,0.2,1.5,0.4,2.1,0.8l-1.1,2.4c-1-0.6-2.2-0.9-3.4-0.9c-0.7,0-1.3,0.1-1.7,0.3c-0.4,0.2-0.6,0.5-0.6,0.8
			c0,0.4,0.2,0.6,0.6,0.8c0.4,0.1,1,0.3,1.9,0.4c1,0.2,1.8,0.3,2.4,0.5c0.6,0.2,1.2,0.5,1.6,1c0.5,0.5,0.7,1.2,0.7,2
			c0,0.7-0.2,1.4-0.7,2c-0.4,0.6-1.1,1-1.9,1.3c-0.8,0.3-1.8,0.5-3,0.5C343.6,103.7,342.7,103.6,341.7,103.3z"/>
	</g>
</g>
</svg>
